<mxfile host="app.diagrams.net" modified="2024-04-24T14:23:02.657Z" agent="Mozilla/5.0 (Windows NT 10.0; Win64; x64) AppleWebKit/537.36 (KHTML, like Gecko) Chrome/121.0.0.0 Safari/537.36 OPR/107.0.0.0" etag="v1SKWrJirYUY-BiMaVas" version="24.3.0" type="device">
  <diagram name="Page-1" id="B_FN4zHITUF37O2ijUEj">
    <mxGraphModel dx="1981" dy="1838" grid="1" gridSize="10" guides="1" tooltips="1" connect="1" arrows="1" fold="1" page="1" pageScale="1" pageWidth="827" pageHeight="1169" math="0" shadow="0">
      <root>
        <mxCell id="0" />
        <mxCell id="1" parent="0" />
        <mxCell id="lP1XuN0JmBKd5bAo4sXh-34" value="&lt;b&gt;Result&lt;/b&gt;" style="rounded=1;whiteSpace=wrap;html=1;fillColor=#f5f5f5;fontColor=#333333;strokeColor=#666666;absoluteArcSize=1;verticalAlign=top;align=left;spacingLeft=10;" vertex="1" parent="1">
          <mxGeometry x="90" y="50" width="200" height="650" as="geometry" />
        </mxCell>
        <mxCell id="lP1XuN0JmBKd5bAo4sXh-18" style="edgeStyle=orthogonalEdgeStyle;rounded=0;orthogonalLoop=1;jettySize=auto;html=1;entryX=0.5;entryY=0;entryDx=0;entryDy=0;" edge="1" parent="1" source="lP1XuN0JmBKd5bAo4sXh-1" target="lP1XuN0JmBKd5bAo4sXh-2">
          <mxGeometry relative="1" as="geometry" />
        </mxCell>
        <mxCell id="lP1XuN0JmBKd5bAo4sXh-1" value="37" style="rounded=1;whiteSpace=wrap;html=1;fillColor=#d5e8d4;strokeColor=#82b366;" vertex="1" parent="1">
          <mxGeometry x="130" y="90" width="120" height="60" as="geometry" />
        </mxCell>
        <mxCell id="lP1XuN0JmBKd5bAo4sXh-19" style="edgeStyle=orthogonalEdgeStyle;rounded=0;orthogonalLoop=1;jettySize=auto;html=1;entryX=0.5;entryY=0;entryDx=0;entryDy=0;" edge="1" parent="1" source="lP1XuN0JmBKd5bAo4sXh-2" target="lP1XuN0JmBKd5bAo4sXh-3">
          <mxGeometry relative="1" as="geometry" />
        </mxCell>
        <mxCell id="lP1XuN0JmBKd5bAo4sXh-2" value="29" style="rounded=1;whiteSpace=wrap;html=1;fillColor=#d5e8d4;strokeColor=#82b366;" vertex="1" parent="1">
          <mxGeometry x="130" y="200" width="120" height="60" as="geometry" />
        </mxCell>
        <mxCell id="lP1XuN0JmBKd5bAo4sXh-20" style="edgeStyle=orthogonalEdgeStyle;rounded=0;orthogonalLoop=1;jettySize=auto;html=1;entryX=0.5;entryY=0;entryDx=0;entryDy=0;" edge="1" parent="1" source="lP1XuN0JmBKd5bAo4sXh-3" target="lP1XuN0JmBKd5bAo4sXh-4">
          <mxGeometry relative="1" as="geometry" />
        </mxCell>
        <mxCell id="lP1XuN0JmBKd5bAo4sXh-3" value="25" style="rounded=1;whiteSpace=wrap;html=1;fillColor=#d5e8d4;strokeColor=#82b366;" vertex="1" parent="1">
          <mxGeometry x="130" y="310" width="120" height="60" as="geometry" />
        </mxCell>
        <mxCell id="lP1XuN0JmBKd5bAo4sXh-21" style="edgeStyle=orthogonalEdgeStyle;rounded=0;orthogonalLoop=1;jettySize=auto;html=1;entryX=0.5;entryY=0;entryDx=0;entryDy=0;" edge="1" parent="1" source="lP1XuN0JmBKd5bAo4sXh-4" target="lP1XuN0JmBKd5bAo4sXh-5">
          <mxGeometry relative="1" as="geometry" />
        </mxCell>
        <mxCell id="lP1XuN0JmBKd5bAo4sXh-4" value="17" style="rounded=1;whiteSpace=wrap;html=1;fillColor=#d5e8d4;strokeColor=#82b366;" vertex="1" parent="1">
          <mxGeometry x="130" y="420" width="120" height="60" as="geometry" />
        </mxCell>
        <mxCell id="lP1XuN0JmBKd5bAo4sXh-22" style="edgeStyle=orthogonalEdgeStyle;rounded=0;orthogonalLoop=1;jettySize=auto;html=1;entryX=0.5;entryY=0;entryDx=0;entryDy=0;" edge="1" parent="1" source="lP1XuN0JmBKd5bAo4sXh-5" target="lP1XuN0JmBKd5bAo4sXh-6">
          <mxGeometry relative="1" as="geometry" />
        </mxCell>
        <mxCell id="lP1XuN0JmBKd5bAo4sXh-26" style="edgeStyle=orthogonalEdgeStyle;rounded=0;orthogonalLoop=1;jettySize=auto;html=1;entryX=0.465;entryY=-0.042;entryDx=0;entryDy=0;entryPerimeter=0;exitX=0.917;exitY=0.5;exitDx=0;exitDy=0;exitPerimeter=0;" edge="1" parent="1" source="lP1XuN0JmBKd5bAo4sXh-5" target="lP1XuN0JmBKd5bAo4sXh-31">
          <mxGeometry relative="1" as="geometry">
            <mxPoint x="50" y="730" as="targetPoint" />
          </mxGeometry>
        </mxCell>
        <mxCell id="lP1XuN0JmBKd5bAo4sXh-5" value="13" style="rounded=1;whiteSpace=wrap;html=1;fillColor=#d5e8d4;strokeColor=#82b366;" vertex="1" parent="1">
          <mxGeometry x="130" y="525" width="120" height="60" as="geometry" />
        </mxCell>
        <mxCell id="lP1XuN0JmBKd5bAo4sXh-6" value="5" style="rounded=1;whiteSpace=wrap;html=1;fillColor=#d5e8d4;strokeColor=#82b366;" vertex="1" parent="1">
          <mxGeometry x="130" y="630" width="120" height="60" as="geometry" />
        </mxCell>
        <mxCell id="lP1XuN0JmBKd5bAo4sXh-7" value="User Input: 14" style="rounded=1;whiteSpace=wrap;html=1;fillColor=#dae8fc;strokeColor=#6c8ebf;" vertex="1" parent="1">
          <mxGeometry x="-220" y="-440" width="120" height="60" as="geometry" />
        </mxCell>
        <mxCell id="lP1XuN0JmBKd5bAo4sXh-9" value="" style="endArrow=classic;html=1;rounded=0;exitX=0.5;exitY=1;exitDx=0;exitDy=0;entryX=0;entryY=0.5;entryDx=0;entryDy=0;edgeStyle=orthogonalEdgeStyle;" edge="1" parent="1" source="lP1XuN0JmBKd5bAo4sXh-25" target="lP1XuN0JmBKd5bAo4sXh-5">
          <mxGeometry width="50" height="50" relative="1" as="geometry">
            <mxPoint x="390" y="350" as="sourcePoint" />
            <mxPoint x="440" y="300" as="targetPoint" />
          </mxGeometry>
        </mxCell>
        <mxCell id="lP1XuN0JmBKd5bAo4sXh-17" style="edgeStyle=orthogonalEdgeStyle;rounded=0;orthogonalLoop=1;jettySize=auto;html=1;entryX=0.5;entryY=0;entryDx=0;entryDy=0;exitX=0.432;exitY=0.972;exitDx=0;exitDy=0;exitPerimeter=0;" edge="1" parent="1" source="lP1XuN0JmBKd5bAo4sXh-14" target="lP1XuN0JmBKd5bAo4sXh-1">
          <mxGeometry relative="1" as="geometry" />
        </mxCell>
        <mxCell id="lP1XuN0JmBKd5bAo4sXh-14" value="reverse_sorted=sorted(triples.triples, reverse=True, key=lambda element: element[2])" style="shape=parallelogram;perimeter=parallelogramPerimeter;whiteSpace=wrap;html=1;fixedSize=1;" vertex="1" parent="1">
          <mxGeometry x="-30" y="-90" width="510" height="60" as="geometry" />
        </mxCell>
        <mxCell id="lP1XuN0JmBKd5bAo4sXh-16" style="edgeStyle=orthogonalEdgeStyle;rounded=0;orthogonalLoop=1;jettySize=auto;html=1;entryX=0.43;entryY=0.014;entryDx=0;entryDy=0;entryPerimeter=0;exitX=1;exitY=0.5;exitDx=0;exitDy=0;" edge="1" parent="1" source="lP1XuN0JmBKd5bAo4sXh-15" target="lP1XuN0JmBKd5bAo4sXh-14">
          <mxGeometry relative="1" as="geometry">
            <mxPoint x="180" y="-60" as="targetPoint" />
          </mxGeometry>
        </mxCell>
        <mxCell id="lP1XuN0JmBKd5bAo4sXh-23" value="" style="endArrow=classic;html=1;rounded=0;exitX=0.5;exitY=1;exitDx=0;exitDy=0;entryX=0.5;entryY=0;entryDx=0;entryDy=0;edgeStyle=orthogonalEdgeStyle;" edge="1" parent="1" source="lP1XuN0JmBKd5bAo4sXh-28" target="lP1XuN0JmBKd5bAo4sXh-25">
          <mxGeometry width="50" height="50" relative="1" as="geometry">
            <mxPoint x="400" y="150" as="sourcePoint" />
            <mxPoint x="250" y="555" as="targetPoint" />
          </mxGeometry>
        </mxCell>
        <mxCell id="lP1XuN0JmBKd5bAo4sXh-25" value="result = list(filter(lambda i: i[2] &amp;lt;= distance, reverse_sorted))[0]" style="shape=parallelogram;perimeter=parallelogramPerimeter;whiteSpace=wrap;html=1;fixedSize=1;" vertex="1" parent="1">
          <mxGeometry x="-345" y="20" width="370" height="60" as="geometry" />
        </mxCell>
        <mxCell id="lP1XuN0JmBKd5bAo4sXh-29" value="" style="endArrow=classic;html=1;rounded=0;exitX=0.5;exitY=1;exitDx=0;exitDy=0;entryX=0.5;entryY=0;entryDx=0;entryDy=0;edgeStyle=orthogonalEdgeStyle;" edge="1" parent="1" source="lP1XuN0JmBKd5bAo4sXh-15" target="lP1XuN0JmBKd5bAo4sXh-28">
          <mxGeometry width="50" height="50" relative="1" as="geometry">
            <mxPoint x="525" y="150" as="sourcePoint" />
            <mxPoint x="525" y="350" as="targetPoint" />
          </mxGeometry>
        </mxCell>
        <mxCell id="lP1XuN0JmBKd5bAo4sXh-28" value="Step 2:&lt;div&gt;&lt;span style=&quot;font-size: 11px; text-wrap: nowrap; background-color: rgb(255, 255, 255);&quot;&gt;Find first distance in ordered list smaller than&amp;nbsp;&lt;/span&gt;&lt;/div&gt;&lt;div&gt;&lt;span style=&quot;font-size: 11px; text-wrap: nowrap; background-color: rgb(255, 255, 255);&quot;&gt;or equal to the input&lt;/span&gt;&lt;br&gt;&lt;/div&gt;" style="rounded=1;whiteSpace=wrap;html=1;fillColor=#f5f5f5;fontColor=#333333;strokeColor=#666666;" vertex="1" parent="1">
          <mxGeometry x="-277" y="-200" width="235" height="60" as="geometry" />
        </mxCell>
        <mxCell id="lP1XuN0JmBKd5bAo4sXh-31" value="Step 3:&lt;div&gt;&lt;span style=&quot;font-size: 11px; text-wrap: nowrap; background-color: rgb(255, 255, 255);&quot;&gt;Return triple: (5, 12, 13)&lt;/span&gt;&lt;/div&gt;" style="rounded=1;whiteSpace=wrap;html=1;fillColor=#f5f5f5;fontColor=#333333;strokeColor=#666666;" vertex="1" parent="1">
          <mxGeometry x="340" y="750" width="230" height="60" as="geometry" />
        </mxCell>
        <mxCell id="lP1XuN0JmBKd5bAo4sXh-33" value="" style="endArrow=classic;html=1;rounded=0;exitX=0.5;exitY=1;exitDx=0;exitDy=0;entryX=0.5;entryY=0;entryDx=0;entryDy=0;edgeStyle=orthogonalEdgeStyle;" edge="1" parent="1" source="lP1XuN0JmBKd5bAo4sXh-7" target="lP1XuN0JmBKd5bAo4sXh-15">
          <mxGeometry width="50" height="50" relative="1" as="geometry">
            <mxPoint x="525" y="-380" as="sourcePoint" />
            <mxPoint x="525" y="-130" as="targetPoint" />
          </mxGeometry>
        </mxCell>
        <mxCell id="lP1XuN0JmBKd5bAo4sXh-15" value="&lt;span style=&quot;text-wrap: nowrap;&quot;&gt;Step 1:&lt;/span&gt;&lt;div style=&quot;text-wrap: nowrap;&quot;&gt;Reverse triples by descending distance&lt;/div&gt;" style="rounded=1;whiteSpace=wrap;html=1;fillColor=#f5f5f5;fontColor=#333333;strokeColor=#666666;" vertex="1" parent="1">
          <mxGeometry x="-280" y="-310" width="240" height="60" as="geometry" />
        </mxCell>
      </root>
    </mxGraphModel>
  </diagram>
</mxfile>
